<?xml version="1.0" encoding="UTF-8" standalone="no"?>
<!DOCTYPE svg PUBLIC "-//W3C//DTD SVG 1.1//EN"
 "http://www.w3.org/Graphics/SVG/1.1/DTD/svg11.dtd">
<!-- Generated by graphviz version 2.40.1 (20161225.0304)
 -->
<!-- Title: models_diagram Pages: 1 -->
<svg width="1369pt" height="752pt"
 viewBox="0.00 0.00 1368.84 751.78" xmlns="http://www.w3.org/2000/svg" xmlns:xlink="http://www.w3.org/1999/xlink">
<g id="graph0" class="graph" transform="scale(1 1) rotate(0) translate(36 715.7803)">
<title>models_diagram</title>
<polygon fill="#ffffff" stroke="transparent" points="-36,36 -36,-715.7803 1332.8395,-715.7803 1332.8395,36 -36,36"/>
<!-- Gurus -->
<g id="node1" class="node">
<title>Gurus</title>
<polygon fill="#add8e6" stroke="transparent" points="0,-405.8901 0,-427.8901 108,-427.8901 108,-405.8901 0,-405.8901"/>
<polygon fill="none" stroke="#000000" points="0,-405.8901 0,-427.8901 108,-427.8901 108,-405.8901 0,-405.8901"/>
<text text-anchor="start" x="41.7815" y="-414.8901" font-family="Times,serif" font-weight="bold" font-size="10.00" fill="#000000">Gurus</text>
<polygon fill="none" stroke="#000000" points="0,-383.8901 0,-405.8901 108,-405.8901 108,-383.8901 0,-383.8901"/>
<text text-anchor="start" x="5" y="-392.8901" font-family="Times,serif" text-decoration="underline" font-size="10.00" fill="#000000">id</text>
<text text-anchor="start" x="12.779" y="-392.8901" font-family="Times,serif" font-size="10.00" fill="#000000">: NUMBER</text>
<polygon fill="none" stroke="#000000" points="0,-361.8901 0,-383.8901 108,-383.8901 108,-361.8901 0,-361.8901"/>
<text text-anchor="start" x="4.9865" y="-369.8901" font-family="Times,serif" font-size="10.00" fill="#000000">namaLengkap: STRING</text>
<polygon fill="none" stroke="#000000" points="0,-339.8901 0,-361.8901 108,-361.8901 108,-339.8901 0,-339.8901"/>
<text text-anchor="start" x="5" y="-347.8901" font-family="Times,serif" font-size="10.00" fill="#000000">jabatan: STRING</text>
<polygon fill="none" stroke="#000000" points="0,-317.8901 0,-339.8901 108,-339.8901 108,-317.8901 0,-317.8901"/>
<text text-anchor="start" x="5" y="-325.8901" font-family="Times,serif" font-size="10.00" fill="#000000">alamat: STRING</text>
<polygon fill="none" stroke="#000000" points="0,-295.8901 0,-317.8901 108,-317.8901 108,-295.8901 0,-295.8901"/>
<text text-anchor="start" x="5" y="-304.8901" font-family="Times,serif" font-style="italic" text-decoration="underline" font-size="10.00" fill="#000000">userId</text>
<text text-anchor="start" x="29.986" y="-304.8901" font-family="Times,serif" font-size="10.00" fill="#000000">: NUMBER</text>
<polygon fill="none" stroke="#000000" points="0,-273.8901 0,-295.8901 108,-295.8901 108,-273.8901 0,-273.8901"/>
<text text-anchor="start" x="5" y="-281.8901" font-family="Times,serif" font-size="10.00" fill="#000000">createdAt: DATE</text>
<polygon fill="none" stroke="#000000" points="0,-251.8901 0,-273.8901 108,-273.8901 108,-251.8901 0,-251.8901"/>
<text text-anchor="start" x="5" y="-259.8901" font-family="Times,serif" font-size="10.00" fill="#000000">updatedAt: DATE</text>
</g>
<!-- Users -->
<g id="node8" class="node">
<title>Users</title>
<polygon fill="#add8e6" stroke="transparent" points="646.7099,-515.6312 646.7099,-537.6312 737.7099,-537.6312 737.7099,-515.6312 646.7099,-515.6312"/>
<polygon fill="none" stroke="#000000" points="646.7099,-515.6312 646.7099,-537.6312 737.7099,-537.6312 737.7099,-515.6312 646.7099,-515.6312"/>
<text text-anchor="start" x="680.8274" y="-524.6312" font-family="Times,serif" font-weight="bold" font-size="10.00" fill="#000000">Users</text>
<polygon fill="none" stroke="#000000" points="646.7099,-493.6312 646.7099,-515.6312 737.7099,-515.6312 737.7099,-493.6312 646.7099,-493.6312"/>
<text text-anchor="start" x="651.7099" y="-502.6312" font-family="Times,serif" text-decoration="underline" font-size="10.00" fill="#000000">id</text>
<text text-anchor="start" x="659.4889" y="-502.6312" font-family="Times,serif" font-size="10.00" fill="#000000">: NUMBER</text>
<polygon fill="none" stroke="#000000" points="646.7099,-471.6312 646.7099,-493.6312 737.7099,-493.6312 737.7099,-471.6312 646.7099,-471.6312"/>
<text text-anchor="start" x="651.2519" y="-479.6312" font-family="Times,serif" font-size="10.00" fill="#000000">userName: STRING</text>
<polygon fill="none" stroke="#000000" points="646.7099,-449.6312 646.7099,-471.6312 737.7099,-471.6312 737.7099,-449.6312 646.7099,-449.6312"/>
<text text-anchor="start" x="651.7099" y="-457.6312" font-family="Times,serif" font-size="10.00" fill="#000000">password: STRING</text>
<polygon fill="none" stroke="#000000" points="646.7099,-427.6312 646.7099,-449.6312 737.7099,-449.6312 737.7099,-427.6312 646.7099,-427.6312"/>
<text text-anchor="start" x="651.7099" y="-435.6312" font-family="Times,serif" font-size="10.00" fill="#000000">role: STRING</text>
<polygon fill="none" stroke="#000000" points="646.7099,-405.6312 646.7099,-427.6312 737.7099,-427.6312 737.7099,-405.6312 646.7099,-405.6312"/>
<text text-anchor="start" x="651.7099" y="-413.6312" font-family="Times,serif" font-size="10.00" fill="#000000">createdAt: DATE</text>
<polygon fill="none" stroke="#000000" points="646.7099,-383.6312 646.7099,-405.6312 737.7099,-405.6312 737.7099,-383.6312 646.7099,-383.6312"/>
<text text-anchor="start" x="651.7099" y="-391.6312" font-family="Times,serif" font-size="10.00" fill="#000000">updatedAt: DATE</text>
</g>
<!-- Gurus&#45;&gt;Users -->
<g id="edge1" class="edge">
<title>Gurus&#45;&gt;Users</title>
<path fill="none" stroke="#000000" stroke-width=".75" d="M114.0037,-351.251C240.732,-375.2451 533.2594,-430.6309 646.1322,-452.0017"/>
<polygon fill="#000000" stroke="#000000" stroke-width=".75" points="113.991,-351.2486 108.598,-347.4795 111.0433,-350.6905 108.0957,-350.1324 108.0957,-350.1324 108.0957,-350.1324 111.0433,-350.6905 107.5934,-352.7852 113.991,-351.2486 113.991,-351.2486"/>
</g>
<!-- Histories -->
<g id="node2" class="node">
<title>Histories</title>
<polygon fill="#add8e6" stroke="transparent" points="979.9907,-110 979.9907,-132 1067.9907,-132 1067.9907,-110 979.9907,-110"/>
<polygon fill="none" stroke="#000000" points="979.9907,-110 979.9907,-132 1067.9907,-132 1067.9907,-110 979.9907,-110"/>
<text text-anchor="start" x="1005.9397" y="-119" font-family="Times,serif" font-weight="bold" font-size="10.00" fill="#000000">Histories</text>
<polygon fill="none" stroke="#000000" points="979.9907,-88 979.9907,-110 1067.9907,-110 1067.9907,-88 979.9907,-88"/>
<text text-anchor="start" x="984.9907" y="-97" font-family="Times,serif" text-decoration="underline" font-size="10.00" fill="#000000">id</text>
<text text-anchor="start" x="992.7697" y="-97" font-family="Times,serif" font-size="10.00" fill="#000000">: NUMBER</text>
<polygon fill="none" stroke="#000000" points="979.9907,-66 979.9907,-88 1067.9907,-88 1067.9907,-66 979.9907,-66"/>
<text text-anchor="start" x="984.9907" y="-74" font-family="Times,serif" font-size="10.00" fill="#000000">SPKe: NUMBER</text>
<polygon fill="none" stroke="#000000" points="979.9907,-44 979.9907,-66 1067.9907,-66 1067.9907,-44 979.9907,-44"/>
<text text-anchor="start" x="984.6922" y="-53" font-family="Times,serif" font-style="italic" text-decoration="underline" font-size="10.00" fill="#000000">siswaId</text>
<text text-anchor="start" x="1015.2362" y="-53" font-family="Times,serif" font-size="10.00" fill="#000000">: NUMBER</text>
<polygon fill="none" stroke="#000000" points="979.9907,-22 979.9907,-44 1067.9907,-44 1067.9907,-22 979.9907,-22"/>
<text text-anchor="start" x="984.9907" y="-30" font-family="Times,serif" font-size="10.00" fill="#000000">createdAt: DATE</text>
<polygon fill="none" stroke="#000000" points="979.9907,0 979.9907,-22 1067.9907,-22 1067.9907,0 979.9907,0"/>
<text text-anchor="start" x="984.9907" y="-8" font-family="Times,serif" font-size="10.00" fill="#000000">updatedAt: DATE</text>
</g>
<!-- Siswas -->
<g id="node6" class="node">
<title>Siswas</title>
<polygon fill="#add8e6" stroke="transparent" points="846.8395,-427.8901 846.8395,-449.8901 954.8395,-449.8901 954.8395,-427.8901 846.8395,-427.8901"/>
<polygon fill="none" stroke="#000000" points="846.8395,-427.8901 846.8395,-449.8901 954.8395,-449.8901 954.8395,-427.8901 846.8395,-427.8901"/>
<text text-anchor="start" x="886.9525" y="-436.8901" font-family="Times,serif" font-weight="bold" font-size="10.00" fill="#000000">Siswas</text>
<polygon fill="none" stroke="#000000" points="846.8395,-405.8901 846.8395,-427.8901 954.8395,-427.8901 954.8395,-405.8901 846.8395,-405.8901"/>
<text text-anchor="start" x="851.8395" y="-414.8901" font-family="Times,serif" text-decoration="underline" font-size="10.00" fill="#000000">id</text>
<text text-anchor="start" x="859.6185" y="-414.8901" font-family="Times,serif" font-size="10.00" fill="#000000">: NUMBER</text>
<polygon fill="none" stroke="#000000" points="846.8395,-383.8901 846.8395,-405.8901 954.8395,-405.8901 954.8395,-383.8901 846.8395,-383.8901"/>
<text text-anchor="start" x="851.8395" y="-391.8901" font-family="Times,serif" font-size="10.00" fill="#000000">nisn: NUMBER</text>
<polygon fill="none" stroke="#000000" points="846.8395,-361.8901 846.8395,-383.8901 954.8395,-383.8901 954.8395,-361.8901 846.8395,-361.8901"/>
<text text-anchor="start" x="851.8395" y="-369.8901" font-family="Times,serif" font-size="10.00" fill="#000000">nis: NUMBER</text>
<polygon fill="none" stroke="#000000" points="846.8395,-339.8901 846.8395,-361.8901 954.8395,-361.8901 954.8395,-339.8901 846.8395,-339.8901"/>
<text text-anchor="start" x="851.826" y="-347.8901" font-family="Times,serif" font-size="10.00" fill="#000000">namaLengkap: STRING</text>
<polygon fill="none" stroke="#000000" points="846.8395,-317.8901 846.8395,-339.8901 954.8395,-339.8901 954.8395,-317.8901 846.8395,-317.8901"/>
<text text-anchor="start" x="851.8395" y="-325.8901" font-family="Times,serif" font-size="10.00" fill="#000000">alamat: STRING</text>
<polygon fill="none" stroke="#000000" points="846.8395,-295.8901 846.8395,-317.8901 954.8395,-317.8901 954.8395,-295.8901 846.8395,-295.8901"/>
<text text-anchor="start" x="851.8395" y="-304.8901" font-family="Times,serif" font-style="italic" text-decoration="underline" font-size="10.00" fill="#000000">userId</text>
<text text-anchor="start" x="876.8255" y="-304.8901" font-family="Times,serif" font-size="10.00" fill="#000000">: NUMBER</text>
<polygon fill="none" stroke="#000000" points="846.8395,-273.8901 846.8395,-295.8901 954.8395,-295.8901 954.8395,-273.8901 846.8395,-273.8901"/>
<text text-anchor="start" x="851.8395" y="-282.8901" font-family="Times,serif" font-style="italic" text-decoration="underline" font-size="10.00" fill="#000000">orangTuaId</text>
<text text-anchor="start" x="898.4845" y="-282.8901" font-family="Times,serif" font-size="10.00" fill="#000000">: NUMBER</text>
<polygon fill="none" stroke="#000000" points="846.8395,-251.8901 846.8395,-273.8901 954.8395,-273.8901 954.8395,-251.8901 846.8395,-251.8901"/>
<text text-anchor="start" x="851.8395" y="-259.8901" font-family="Times,serif" font-size="10.00" fill="#000000">createdAt: DATE</text>
<polygon fill="none" stroke="#000000" points="846.8395,-229.8901 846.8395,-251.8901 954.8395,-251.8901 954.8395,-229.8901 846.8395,-229.8901"/>
<text text-anchor="start" x="851.8395" y="-237.8901" font-family="Times,serif" font-size="10.00" fill="#000000">updatedAt: DATE</text>
</g>
<!-- Histories&#45;&gt;Siswas -->
<g id="edge2" class="edge">
<title>Histories&#45;&gt;Siswas</title>
<path fill="none" stroke="#000000" stroke-width=".75" d="M991.6796,-137.8604C979.0339,-165.9846 964.2425,-198.8809 950.3116,-229.8634"/>
<polygon fill="#000000" stroke="#000000" stroke-width=".75" points="991.7186,-137.7734 996.6418,-133.4084 992.9489,-135.0373 994.1792,-132.3012 994.1792,-132.3012 994.1792,-132.3012 992.9489,-135.0373 991.7167,-131.1939 991.7186,-137.7734 991.7186,-137.7734"/>
</g>
<!-- KategoriPelanggarans -->
<g id="node3" class="node">
<title>KategoriPelanggarans</title>
<polygon fill="#add8e6" stroke="transparent" points="1188.8395,-383.8901 1188.8395,-405.8901 1296.8395,-405.8901 1296.8395,-383.8901 1188.8395,-383.8901"/>
<polygon fill="none" stroke="#000000" points="1188.8395,-383.8901 1188.8395,-405.8901 1296.8395,-405.8901 1296.8395,-383.8901 1188.8395,-383.8901"/>
<text text-anchor="start" x="1198.6915" y="-392.8901" font-family="Times,serif" font-weight="bold" font-size="10.00" fill="#000000">KategoriPelanggarans</text>
<polygon fill="none" stroke="#000000" points="1188.8395,-361.8901 1188.8395,-383.8901 1296.8395,-383.8901 1296.8395,-361.8901 1188.8395,-361.8901"/>
<text text-anchor="start" x="1193.8395" y="-370.8901" font-family="Times,serif" text-decoration="underline" font-size="10.00" fill="#000000">id</text>
<text text-anchor="start" x="1201.6185" y="-370.8901" font-family="Times,serif" font-size="10.00" fill="#000000">: NUMBER</text>
<polygon fill="none" stroke="#000000" points="1188.8395,-339.8901 1188.8395,-361.8901 1296.8395,-361.8901 1296.8395,-339.8901 1188.8395,-339.8901"/>
<text text-anchor="start" x="1193.8275" y="-347.8901" font-family="Times,serif" font-size="10.00" fill="#000000">namaKategori: STRING</text>
<polygon fill="none" stroke="#000000" points="1188.8395,-317.8901 1188.8395,-339.8901 1296.8395,-339.8901 1296.8395,-317.8901 1188.8395,-317.8901"/>
<text text-anchor="start" x="1193.8395" y="-325.8901" font-family="Times,serif" font-size="10.00" fill="#000000">poin: NUMBER</text>
<polygon fill="none" stroke="#000000" points="1188.8395,-295.8901 1188.8395,-317.8901 1296.8395,-317.8901 1296.8395,-295.8901 1188.8395,-295.8901"/>
<text text-anchor="start" x="1193.8395" y="-303.8901" font-family="Times,serif" font-size="10.00" fill="#000000">createdAt: DATE</text>
<polygon fill="none" stroke="#000000" points="1188.8395,-273.8901 1188.8395,-295.8901 1296.8395,-295.8901 1296.8395,-273.8901 1188.8395,-273.8901"/>
<text text-anchor="start" x="1193.8395" y="-281.8901" font-family="Times,serif" font-size="10.00" fill="#000000">updatedAt: DATE</text>
</g>
<!-- OrangTuas -->
<g id="node4" class="node">
<title>OrangTuas</title>
<polygon fill="#add8e6" stroke="transparent" points="637.7099,-285.1491 637.7099,-307.1491 745.7099,-307.1491 745.7099,-285.1491 637.7099,-285.1491"/>
<polygon fill="none" stroke="#000000" points="637.7099,-285.1491 637.7099,-307.1491 745.7099,-307.1491 745.7099,-285.1491 637.7099,-285.1491"/>
<text text-anchor="start" x="669.4979" y="-294.1491" font-family="Times,serif" font-weight="bold" font-size="10.00" fill="#000000">OrangTuas</text>
<polygon fill="none" stroke="#000000" points="637.7099,-263.1491 637.7099,-285.1491 745.7099,-285.1491 745.7099,-263.1491 637.7099,-263.1491"/>
<text text-anchor="start" x="642.7099" y="-272.1491" font-family="Times,serif" text-decoration="underline" font-size="10.00" fill="#000000">id</text>
<text text-anchor="start" x="650.4889" y="-272.1491" font-family="Times,serif" font-size="10.00" fill="#000000">: NUMBER</text>
<polygon fill="none" stroke="#000000" points="637.7099,-241.1491 637.7099,-263.1491 745.7099,-263.1491 745.7099,-241.1491 637.7099,-241.1491"/>
<text text-anchor="start" x="642.6964" y="-249.1491" font-family="Times,serif" font-size="10.00" fill="#000000">namaLengkap: STRING</text>
<polygon fill="none" stroke="#000000" points="637.7099,-219.1491 637.7099,-241.1491 745.7099,-241.1491 745.7099,-219.1491 637.7099,-219.1491"/>
<text text-anchor="start" x="642.7099" y="-227.1491" font-family="Times,serif" font-size="10.00" fill="#000000">alamat: STRING</text>
<polygon fill="none" stroke="#000000" points="637.7099,-197.1491 637.7099,-219.1491 745.7099,-219.1491 745.7099,-197.1491 637.7099,-197.1491"/>
<text text-anchor="start" x="642.7099" y="-205.1491" font-family="Times,serif" font-size="10.00" fill="#000000">noTelp: STRING</text>
<polygon fill="none" stroke="#000000" points="637.7099,-175.1491 637.7099,-197.1491 745.7099,-197.1491 745.7099,-175.1491 637.7099,-175.1491"/>
<text text-anchor="start" x="642.7099" y="-184.1491" font-family="Times,serif" font-style="italic" text-decoration="underline" font-size="10.00" fill="#000000">userId</text>
<text text-anchor="start" x="667.6959" y="-184.1491" font-family="Times,serif" font-size="10.00" fill="#000000">: NUMBER</text>
<polygon fill="none" stroke="#000000" points="637.7099,-153.1491 637.7099,-175.1491 745.7099,-175.1491 745.7099,-153.1491 637.7099,-153.1491"/>
<text text-anchor="start" x="642.7099" y="-161.1491" font-family="Times,serif" font-size="10.00" fill="#000000">createdAt: DATE</text>
<polygon fill="none" stroke="#000000" points="637.7099,-131.1491 637.7099,-153.1491 745.7099,-153.1491 745.7099,-131.1491 637.7099,-131.1491"/>
<text text-anchor="start" x="642.7099" y="-139.1491" font-family="Times,serif" font-size="10.00" fill="#000000">updatedAt: DATE</text>
</g>
<!-- OrangTuas&#45;&gt;Users -->
<g id="edge3" class="edge">
<title>OrangTuas&#45;&gt;Users</title>
<path fill="none" stroke="#000000" stroke-width=".75" d="M691.7099,-313.5265C691.7099,-336.6792 691.7099,-361.1916 691.7099,-383.429"/>
<polygon fill="#000000" stroke="#000000" stroke-width=".75" points="691.71,-313.3547 694.4099,-307.3547 691.7099,-310.3547 691.7099,-307.3547 691.7099,-307.3547 691.7099,-307.3547 691.7099,-310.3547 689.0099,-307.3548 691.71,-313.3547 691.71,-313.3547"/>
</g>
<!-- Pelanggarans -->
<g id="node5" class="node">
<title>Pelanggarans</title>
<polygon fill="#add8e6" stroke="transparent" points="981.8395,-383.8901 981.8395,-405.8901 1096.8395,-405.8901 1096.8395,-383.8901 981.8395,-383.8901"/>
<polygon fill="none" stroke="#000000" points="981.8395,-383.8901 981.8395,-405.8901 1096.8395,-405.8901 1096.8395,-383.8901 981.8395,-383.8901"/>
<text text-anchor="start" x="1012.6835" y="-392.8901" font-family="Times,serif" font-weight="bold" font-size="10.00" fill="#000000">Pelanggarans</text>
<polygon fill="none" stroke="#000000" points="981.8395,-361.8901 981.8395,-383.8901 1096.8395,-383.8901 1096.8395,-361.8901 981.8395,-361.8901"/>
<text text-anchor="start" x="986.8395" y="-370.8901" font-family="Times,serif" text-decoration="underline" font-size="10.00" fill="#000000">id</text>
<text text-anchor="start" x="994.6185" y="-370.8901" font-family="Times,serif" font-size="10.00" fill="#000000">: NUMBER</text>
<polygon fill="none" stroke="#000000" points="981.8395,-339.8901 981.8395,-361.8901 1096.8395,-361.8901 1096.8395,-339.8901 981.8395,-339.8901"/>
<text text-anchor="start" x="986.7165" y="-348.8901" font-family="Times,serif" font-style="italic" text-decoration="underline" font-size="10.00" fill="#000000">pelanggaranId</text>
<text text-anchor="start" x="1043.9095" y="-348.8901" font-family="Times,serif" font-size="10.00" fill="#000000">: NUMBER</text>
<polygon fill="none" stroke="#000000" points="981.8395,-317.8901 981.8395,-339.8901 1096.8395,-339.8901 1096.8395,-317.8901 981.8395,-317.8901"/>
<text text-anchor="start" x="986.8395" y="-326.8901" font-family="Times,serif" font-style="italic" text-decoration="underline" font-size="10.00" fill="#000000">siswaId</text>
<text text-anchor="start" x="1017.3835" y="-326.8901" font-family="Times,serif" font-size="10.00" fill="#000000">: NUMBER</text>
<polygon fill="none" stroke="#000000" points="981.8395,-295.8901 981.8395,-317.8901 1096.8395,-317.8901 1096.8395,-295.8901 981.8395,-295.8901"/>
<text text-anchor="start" x="986.8395" y="-303.8901" font-family="Times,serif" font-size="10.00" fill="#000000">createdAt: DATE</text>
<polygon fill="none" stroke="#000000" points="981.8395,-273.8901 981.8395,-295.8901 1096.8395,-295.8901 1096.8395,-273.8901 981.8395,-273.8901"/>
<text text-anchor="start" x="986.8395" y="-281.8901" font-family="Times,serif" font-size="10.00" fill="#000000">updatedAt: DATE</text>
</g>
<!-- Pelanggarans&#45;&gt;KategoriPelanggarans -->
<g id="edge5" class="edge">
<title>Pelanggarans&#45;&gt;KategoriPelanggarans</title>
<path fill="none" stroke="#000000" stroke-width=".75" d="M1102.6518,-339.8901C1130.202,-339.8901 1162.0962,-339.8901 1188.4962,-339.8901"/>
<polygon fill="#000000" stroke="#000000" stroke-width=".75" points="1102.4797,-339.8902 1096.4797,-337.1901 1099.4797,-339.8902 1096.4797,-339.8901 1096.4797,-339.8901 1096.4797,-339.8901 1099.4797,-339.8902 1096.4796,-342.5901 1102.4797,-339.8902 1102.4797,-339.8902"/>
</g>
<!-- Pelanggarans&#45;&gt;Siswas -->
<g id="edge4" class="edge">
<title>Pelanggarans&#45;&gt;Siswas</title>
<path fill="none" stroke="#000000" stroke-width=".75" d="M975.0583,-339.8901C968.4362,-339.8901 961.7497,-339.8901 955.2445,-339.8901"/>
<polygon fill="#000000" stroke="#000000" stroke-width=".75" points="975.1146,-339.8902 981.1147,-342.5901 978.1146,-339.8902 981.1146,-339.8901 981.1146,-339.8901 981.1146,-339.8901 978.1146,-339.8902 981.1146,-337.1901 975.1146,-339.8902 975.1146,-339.8902"/>
</g>
<!-- Siswas&#45;&gt;OrangTuas -->
<g id="edge6" class="edge">
<title>Siswas&#45;&gt;OrangTuas</title>
<path fill="none" stroke="#000000" stroke-width=".75" d="M841.1885,-305.4506C811.2148,-288.1453 775.1622,-267.3303 745.974,-250.4785"/>
<polygon fill="#000000" stroke="#000000" stroke-width=".75" points="841.5153,-305.6393 845.3614,-310.9776 844.1133,-307.1393 846.7114,-308.6393 846.7114,-308.6393 846.7114,-308.6393 844.1133,-307.1393 848.0614,-306.301 841.5153,-305.6393 841.5153,-305.6393"/>
</g>
<!-- Siswas&#45;&gt;Users -->
<g id="edge7" class="edge">
<title>Siswas&#45;&gt;Users</title>
<path fill="none" stroke="#000000" stroke-width=".75" d="M841.4798,-374.1615C808.4676,-393.221 768.0111,-416.5786 737.4709,-434.211"/>
<polygon fill="#000000" stroke="#000000" stroke-width=".75" points="841.5153,-374.141 848.0614,-373.4792 844.1133,-372.641 846.7114,-371.141 846.7114,-371.141 846.7114,-371.141 844.1133,-372.641 845.3614,-368.8027 841.5153,-374.141 841.5153,-374.141"/>
</g>
<!-- TotalPoints -->
<g id="node7" class="node">
<title>TotalPoints</title>
<polygon fill="#add8e6" stroke="transparent" points="975.9907,-657.7803 975.9907,-679.7803 1071.9907,-679.7803 1071.9907,-657.7803 975.9907,-657.7803"/>
<polygon fill="none" stroke="#000000" points="975.9907,-657.7803 975.9907,-679.7803 1071.9907,-679.7803 1071.9907,-657.7803 975.9907,-657.7803"/>
<text text-anchor="start" x="1000.9347" y="-666.7803" font-family="Times,serif" font-weight="bold" font-size="10.00" fill="#000000">TotalPoints</text>
<polygon fill="none" stroke="#000000" points="975.9907,-635.7803 975.9907,-657.7803 1071.9907,-657.7803 1071.9907,-635.7803 975.9907,-635.7803"/>
<text text-anchor="start" x="980.9907" y="-644.7803" font-family="Times,serif" text-decoration="underline" font-size="10.00" fill="#000000">id</text>
<text text-anchor="start" x="988.7697" y="-644.7803" font-family="Times,serif" font-size="10.00" fill="#000000">: NUMBER</text>
<polygon fill="none" stroke="#000000" points="975.9907,-613.7803 975.9907,-635.7803 1071.9907,-635.7803 1071.9907,-613.7803 975.9907,-613.7803"/>
<text text-anchor="start" x="980.5177" y="-621.7803" font-family="Times,serif" font-size="10.00" fill="#000000">totalPoint: NUMBER</text>
<polygon fill="none" stroke="#000000" points="975.9907,-591.7803 975.9907,-613.7803 1071.9907,-613.7803 1071.9907,-591.7803 975.9907,-591.7803"/>
<text text-anchor="start" x="980.9907" y="-600.7803" font-family="Times,serif" font-style="italic" text-decoration="underline" font-size="10.00" fill="#000000">siswaId</text>
<text text-anchor="start" x="1011.5347" y="-600.7803" font-family="Times,serif" font-size="10.00" fill="#000000">: NUMBER</text>
<polygon fill="none" stroke="#000000" points="975.9907,-569.7803 975.9907,-591.7803 1071.9907,-591.7803 1071.9907,-569.7803 975.9907,-569.7803"/>
<text text-anchor="start" x="980.9907" y="-577.7803" font-family="Times,serif" font-size="10.00" fill="#000000">createdAt: DATE</text>
<polygon fill="none" stroke="#000000" points="975.9907,-547.7803 975.9907,-569.7803 1071.9907,-569.7803 1071.9907,-547.7803 975.9907,-547.7803"/>
<text text-anchor="start" x="980.9907" y="-555.7803" font-family="Times,serif" font-size="10.00" fill="#000000">updatedAt: DATE</text>
</g>
<!-- TotalPoints&#45;&gt;Siswas -->
<g id="edge8" class="edge">
<title>TotalPoints&#45;&gt;Siswas</title>
<path fill="none" stroke="#000000" stroke-width=".75" d="M994.1792,-547.4791C981.0099,-518.1904 965.1712,-482.9649 950.3116,-449.9168"/>
</g>
</g>
</svg>
